{
	"asset":{
		"generator":"Khronos glTF Blender I/O v3.5.30",
		"version":"2.0"
	},
	"scene":0,
	"scenes":[
		{
			"name":"Scene",
			"nodes":[
				0
			]
		}
	],
	"nodes":[
		{
			"mesh":0,
			"name":"18avr.\u00e01-59PM-poly"
		}
	],
	"meshes":[
		{
			"name":"18avr.\u00e01-59PM-poly",
			"primitives":[
				{
					"attributes":{
						"POSITION":0,
						"NORMAL":1
					},
					"indices":2
				}
			]
		}
	],
	"accessors":[
		{
			"bufferView":0,
			"componentType":5126,
			"count":72012,
			"max":[
				0.11305300146341324,
				0.42940598726272583,
				0.18893200159072876
			],
			"min":[
				-0.11305300146341324,
				-0.42940598726272583,
				-0.18893200159072876
			],
			"type":"VEC3"
		},
		{
			"bufferView":1,
			"componentType":5126,
			"count":72012,
			"type":"VEC3"
		},
		{
			"bufferView":2,
			"componentType":5125,
			"count":72012,
			"type":"SCALAR"
		}
	],
	"bufferViews":[
		{
			"buffer":0,
			"byteLength":864144,
			"byteOffset":0,
			"target":34962
		},
		{
			"buffer":0,
			"byteLength":864144,
			"byteOffset":864144,
			"target":34962
		},
		{
			"buffer":0,
			"byteLength":288048,
			"byteOffset":1728288,
			"target":34963
		}
	],
	"buffers":[
		{
			"byteLength":2016336,
			"uri":"data:application/octet-stream;base64,"
		}
	]
}
